<?xml version="1.0" encoding="utf-8"?>
<!-- Generator: Adobe Illustrator 16.0.0, SVG Export Plug-In . SVG Version: 6.00 Build 0)  -->
<!DOCTYPE svg PUBLIC "-//W3C//DTD SVG 1.1//EN" "http://www.w3.org/Graphics/SVG/1.1/DTD/svg11.dtd">
<svg version="1.1" id="图层_1" xmlns="http://www.w3.org/2000/svg" xmlns:xlink="http://www.w3.org/1999/xlink" x="0px" y="0px"
	 width="63.77px" height="63.768px" viewBox="1.193 1.232 63.77 63.768" enable-background="new 1.193 1.232 63.77 63.768"
	 xml:space="preserve">
<path fill="#FC0208" d="M33.078,1.232c-17.61,0-31.885,14.275-31.885,31.883C1.193,50.725,15.469,65,33.078,65
	c17.609,0,31.885-14.275,31.885-31.885C64.963,15.507,50.688,1.232,33.078,1.232z M48.127,44.027c1.271,1.281,1.271,3.361,0,4.644
	c-1.271,1.283-3.332,1.282-4.604,0L32.939,37.755L22.625,48.398c-1.271,1.281-3.333,1.281-4.604,0c-1.272-1.283-1.272-3.362,0-4.646
	l10.313-10.644L18.021,22.468c-1.271-1.282-1.271-3.362,0-4.644c1.271-1.282,3.333-1.282,4.604,0l10.314,10.643l10.584-10.916
	c1.271-1.283,3.332-1.283,4.604,0c1.271,1.282,1.271,3.362,0,4.644L37.543,33.111L48.127,44.027z"/>
</svg>
