<?xml version="1.0" encoding="utf-8"?>
<!-- Generator: Adobe Illustrator 16.0.0, SVG Export Plug-In . SVG Version: 6.00 Build 0)  -->
<!DOCTYPE svg PUBLIC "-//W3C//DTD SVG 1.1//EN" "http://www.w3.org/Graphics/SVG/1.1/DTD/svg11.dtd">
<svg version="1.1" id="图层_1" xmlns="http://www.w3.org/2000/svg" xmlns:xlink="http://www.w3.org/1999/xlink" x="0px" y="0px"
	 width="63.996px" height="64px" viewBox="1 1 63.996 64" enable-background="new 1 1 63.996 64" xml:space="preserve">
<path fill="#01DC09" d="M32.998,1C15.324,1,1,15.327,1,33.002C1,50.674,15.324,65,32.998,65c17.676,0,31.998-14.326,31.998-31.998
	C64.996,15.327,50.674,1,32.998,1z M51.959,20.935L30.293,49.76c-0.677,0.898-1.708,1.463-2.83,1.547
	c-0.099,0.008-0.195,0.01-0.292,0.01c-1.021,0-2.004-0.397-2.736-1.118L12.379,38.355c-1.539-1.513-1.562-3.982-0.049-5.521
	c1.513-1.541,3.983-1.559,5.522-0.051l8.877,8.719l18.987-25.264c1.296-1.723,3.742-2.07,5.47-0.776
	C52.906,16.764,53.256,19.211,51.959,20.935z"/>
</svg>
